<?xml version="1.0" encoding="UTF-8"?>
<!DOCTYPE svg PUBLIC "-//W3C//DTD SVG 1.1//EN" "http://www.w3.org/Graphics/SVG/1.1/DTD/svg11.dtd">
<svg xmlns="http://www.w3.org/2000/svg" version="1.1" width="512px" height="512px" style="shape-rendering:geometricPrecision; text-rendering:geometricPrecision; image-rendering:optimizeQuality; fill-rule:evenodd; clip-rule:evenodd" xmlns:xlink="http://www.w3.org/1999/xlink">
<g><path style="opacity:0.984" fill="#FFFFFF" d="M 85.5,7.5 C 90.5,7.5 95.5,7.5 100.5,7.5C 100.5,141.167 100.5,274.833 100.5,408.5C 108.167,408.5 115.833,408.5 123.5,408.5C 123.5,376.5 123.5,344.5 123.5,312.5C 132.839,312.334 142.173,312.5 151.5,313C 158.219,313.763 162.719,317.263 165,323.5C 165.333,335.5 165.667,347.5 166,359.5C 167.85,365.016 171.683,367.85 177.5,368C 188.833,368.333 200.167,368.667 211.5,369C 216.062,370.627 218.895,373.794 220,378.5C 220.5,388.494 220.666,398.494 220.5,408.5C 228.167,408.5 235.833,408.5 243.5,408.5C 243.667,397.828 243.5,387.161 243,376.5C 239.714,360.547 230.214,350.38 214.5,346C 205.875,344.799 197.208,344.299 188.5,344.5C 191.68,327.034 187.347,311.868 175.5,299C 170.725,295.279 165.391,292.612 159.5,291C 147.543,289.662 135.543,289.162 123.5,289.5C 123.5,235.167 123.5,180.833 123.5,126.5C 135.171,126.667 146.838,126.5 158.5,126C 172.734,122.293 182.234,113.46 187,99.5C 188.386,90.2338 188.886,80.9005 188.5,71.5C 208.068,75.5849 224.235,70.2516 237,55.5C 239.837,50.8281 241.837,45.8281 243,40.5C 243.5,29.505 243.667,18.505 243.5,7.5C 270.833,7.5 298.167,7.5 325.5,7.5C 325.333,18.1719 325.5,28.8385 326,39.5C 329.609,55.7772 339.442,66.2772 355.5,71C 363.827,71.4997 372.16,71.6664 380.5,71.5C 380.154,80.5586 380.654,89.5586 382,98.5C 386.571,112.737 396.071,121.904 410.5,126C 426.163,126.5 441.83,126.667 457.5,126.5C 457.5,180.833 457.5,235.167 457.5,289.5C 444.163,289.333 430.829,289.5 417.5,290C 401.014,291.159 389.514,299.325 383,314.5C 380.748,324.358 379.915,334.358 380.5,344.5C 368.006,343.403 356.006,345.237 344.5,350C 336.088,355.421 330.255,362.921 327,372.5C 325.609,384.447 325.109,396.447 325.5,408.5C 333.167,408.5 340.833,408.5 348.5,408.5C 348.334,398.494 348.5,388.494 349,378.5C 350.4,375.098 352.567,372.264 355.5,370C 367.404,368.707 379.404,368.04 391.5,368C 397.317,367.85 401.15,365.016 403,359.5C 403.333,347.833 403.667,336.167 404,324.5C 406.064,317.767 410.564,313.934 417.5,313C 430.829,312.5 444.163,312.333 457.5,312.5C 457.667,344.835 457.5,377.168 457,409.5C 455.049,418.941 449.882,425.941 441.5,430.5C 440.501,446.82 440.167,463.153 440.5,479.5C 455.362,478.89 460.195,485.557 455,499.5C 453.786,501.049 452.286,502.215 450.5,503C 330.833,503.667 211.167,503.667 91.5,503C 70.8072,497.64 58.3072,484.473 54,463.5C 53.3333,322.833 53.3333,182.167 54,41.5C 57.832,23.8396 68.332,12.5062 85.5,7.5 Z M 280.5,138.5 C 287.663,137.608 293.497,139.941 298,145.5C 303.927,162.741 313.761,177.241 327.5,189C 334.726,194.079 342.393,198.412 350.5,202C 357.465,210.972 357.131,219.639 349.5,228C 324.084,238.752 306.918,257.252 298,283.5C 289.032,292.765 280.032,292.765 271,283.5C 264.423,263.609 252.59,247.776 235.5,236C 230.167,233.333 224.833,230.667 219.5,228C 210.999,218.008 211.666,208.675 221.5,200C 246.689,189.807 263.189,171.64 271,145.5C 273.825,142.524 276.992,140.191 280.5,138.5 Z M 99.5,433.5 C 204.833,433.5 310.167,433.5 415.5,433.5C 415.5,436.833 415.5,440.167 415.5,443.5C 311.166,443.333 206.833,443.5 102.5,444C 92.0123,446.81 88.8456,453.31 93,463.5C 94.5429,465.378 96.3762,466.878 98.5,468C 204.166,468.5 309.833,468.667 415.5,468.5C 415.5,472.167 415.5,475.833 415.5,479.5C 310.499,479.667 205.499,479.5 100.5,479C 83.2542,475.764 76.4209,465.598 80,448.5C 84.083,440.238 90.583,435.238 99.5,433.5 Z"/></g>
<g><path style="opacity:0.979" fill="#FFFFFF" d="M 123.5,7.5 C 155.833,7.5 188.167,7.5 220.5,7.5C 220.666,17.8387 220.5,28.172 220,38.5C 218.6,41.9024 216.433,44.7357 213.5,47C 200.903,48.2751 188.236,48.9418 175.5,49C 170.765,50.0681 167.598,52.9014 166,57.5C 165.667,69.5 165.333,81.5 165,93.5C 163.6,96.9024 161.433,99.7357 158.5,102C 146.91,103.436 135.243,103.936 123.5,103.5C 123.5,71.5 123.5,39.5 123.5,7.5 Z"/></g>
<g><path style="opacity:0.98" fill="#FFFFFF" d="M 348.5,7.5 C 377.502,7.33336 406.502,7.50002 435.5,8C 447.083,11.2503 454.25,18.7503 457,30.5C 457.5,54.8311 457.667,79.1644 457.5,103.5C 442.83,103.667 428.163,103.5 413.5,103C 408.572,101.073 405.406,97.5732 404,92.5C 403.942,79.7636 403.275,67.0969 402,54.5C 399.9,51.5332 397.066,49.6998 393.5,49C 381.833,48.6667 370.167,48.3333 358.5,48C 353.572,46.0732 350.406,42.5732 349,37.5C 348.5,27.5056 348.334,17.5056 348.5,7.5 Z"/></g>
<g><path style="opacity:0.947" fill="#FFFFFF" d="M 283.5,172.5 C 285.074,172.937 286.241,173.937 287,175.5C 295.925,191.925 308.425,204.925 324.5,214.5C 315.968,219.855 308.134,226.189 301,233.5C 294.997,240.852 289.497,248.518 284.5,256.5C 274.933,238.932 261.599,224.932 244.5,214.5C 261.7,204.303 274.7,190.303 283.5,172.5 Z"/></g>
</svg>
