<?xml version="1.0" encoding="UTF-8"?>
<!DOCTYPE svg PUBLIC "-//W3C//DTD SVG 1.1//EN" "http://www.w3.org/Graphics/SVG/1.1/DTD/svg11.dtd">
<svg xmlns="http://www.w3.org/2000/svg" version="1.1" width="512px" height="512px" style="shape-rendering:geometricPrecision; text-rendering:geometricPrecision; image-rendering:optimizeQuality; fill-rule:evenodd; clip-rule:evenodd" xmlns:xlink="http://www.w3.org/1999/xlink">
<g><path style="opacity:0.938" fill="#FFFFFF" d="M 234.5,-0.5 C 248.833,-0.5 263.167,-0.5 277.5,-0.5C 367.558,10.0957 435.392,54.429 481,132.5C 497.855,164.278 508.022,197.945 511.5,233.5C 511.5,248.167 511.5,262.833 511.5,277.5C 499.016,377.807 447.016,449.307 355.5,492C 330.012,502.456 303.678,508.956 276.5,511.5C 262.167,511.5 247.833,511.5 233.5,511.5C 138.072,499.89 68.2384,451.556 24,366.5C 10.9733,338.049 2.80667,308.382 -0.5,277.5C -0.5,262.5 -0.5,247.5 -0.5,232.5C 9.54746,147.959 50.5475,82.4593 122.5,36C 157.293,15.6795 194.626,3.51282 234.5,-0.5 Z M 237.5,17.5 C 267.81,15.6899 297.477,19.1899 326.5,28C 332.362,29.9514 338.029,32.2848 343.5,35C 339.5,37 335.5,39 331.5,41C 318.738,41.0381 306.072,41.7048 293.5,43C 292.333,44.1667 291.167,45.3333 290,46.5C 284.333,57.8333 278.667,69.1667 273,80.5C 271.631,85.4374 272.797,89.604 276.5,93C 286.414,96.4715 296.414,99.6382 306.5,102.5C 317.684,99.9124 328.85,97.2458 340,94.5C 363.893,102.745 388.393,107.911 413.5,110C 420,105.5 426.5,101 433,96.5C 442.13,106.795 450.297,117.795 457.5,129.5C 443.859,135.158 429.859,139.825 415.5,143.5C 400.7,141.478 386.033,138.811 371.5,135.5C 366.47,128.302 361.637,120.969 357,113.5C 356.097,112.299 354.931,111.465 353.5,111C 334.886,109.386 316.219,109.052 297.5,110C 296.167,110.333 294.833,110.667 293.5,111C 284,120.5 274.5,130 265,139.5C 264.042,141.199 263.542,143.033 263.5,145C 266.333,164.833 269.167,184.667 272,204.5C 272.303,206.888 273.137,209.055 274.5,211C 295.084,220.195 315.751,229.195 336.5,238C 339.833,238.667 343.167,238.667 346.5,238C 354.939,235.599 363.439,233.432 372,231.5C 378.608,234.976 384.941,238.976 391,243.5C 391.066,254.905 391.733,266.238 393,277.5C 403.667,298.833 414.333,320.167 425,341.5C 425.333,353.5 425.667,365.5 426,377.5C 431.761,385.265 438.261,392.431 445.5,399C 391.878,466.131 321.878,497.464 235.5,493C 148.881,482.803 84.7146,439.636 43,363.5C 15.3417,307.228 10.0084,248.895 27,188.5C 29.5305,195.091 31.8639,201.758 34,208.5C 35.5,210 37,211.5 38.5,213C 52.1065,221.608 65.4398,230.608 78.5,240C 74.6311,243.534 71.1311,247.367 68,251.5C 67.3333,262.5 67.3333,273.5 68,284.5C 74,296.5 80,308.5 86,320.5C 87.3189,322.487 89.1523,323.654 91.5,324C 103.422,326.251 115.256,328.751 127,331.5C 127.333,358.833 127.667,386.167 128,413.5C 134,428.167 140,442.833 146,457.5C 156.442,462.372 167.275,466.372 178.5,469.5C 182.157,469.226 184.99,467.56 187,464.5C 187.333,450.5 187.667,436.5 188,422.5C 199.287,414.214 210.287,405.548 221,396.5C 221.333,387.833 221.667,379.167 222,370.5C 232.667,359.833 243.333,349.167 254,338.5C 258.262,322.525 261.762,306.359 264.5,290C 264.5,285.667 262.5,282.667 258.5,281C 247.833,280.667 237.167,280.333 226.5,280C 218.333,265.995 209.666,252.329 200.5,239C 180.885,237.716 161.218,237.049 141.5,237C 136.539,227.578 131.706,218.078 127,208.5C 122.463,202.627 117.296,202.127 111.5,207C 108.667,209.833 105.833,212.667 103,215.5C 102.667,210.833 102.333,206.167 102,201.5C 97.4093,194.905 92.076,188.905 86,183.5C 85.5008,178.845 85.3342,174.179 85.5,169.5C 103.917,167.179 122.25,164.345 140.5,161C 155.333,152.418 169.999,143.585 184.5,134.5C 192.918,121.334 201.084,108 209,94.5C 209.833,93.6667 210.667,92.8333 211.5,92C 220.14,89.511 228.473,86.3443 236.5,82.5C 240.851,72.2831 244.517,61.7831 247.5,51C 247.417,46.2505 245.084,43.2505 240.5,42C 224.852,39.2254 209.186,36.5587 193.5,34C 189.929,32.8814 186.596,31.2147 183.5,29C 201.189,23.1129 219.189,19.2796 237.5,17.5 Z M 160.5,36.5 C 167.945,40.7269 175.278,45.2269 182.5,50C 197.146,52.9411 211.813,55.7744 226.5,58.5C 225.235,61.7957 224.068,65.129 223,68.5C 215.336,71.722 207.503,74.5554 199.5,77C 190.041,90.7466 181.207,104.913 173,119.5C 160.752,127.709 148.252,135.542 135.5,143C 114.958,146.888 94.2917,150.221 73.5,153C 71.714,153.785 70.214,154.951 69,156.5C 67.3781,167.736 67.0448,179.069 68,190.5C 72.9672,196.469 78.3005,202.135 84,207.5C 84.6667,212.167 84.6667,216.833 84,221.5C 72.8396,213.586 61.5062,205.919 50,198.5C 45.1585,185.318 41.1585,171.985 38,158.5C 64.0781,102.922 104.911,62.255 160.5,36.5 Z M 364.5,44.5 C 384.617,54.3137 402.784,66.9803 419,82.5C 419.688,83.3317 419.521,83.9984 418.5,84.5C 414.5,87.1667 410.5,89.8333 406.5,92.5C 394.552,89.8103 382.552,87.3103 370.5,85C 360.728,81.6317 350.895,78.465 341,75.5C 329.853,78.2451 318.686,80.9118 307.5,83.5C 302.692,82.7911 298.359,81.1244 294.5,78.5C 297.5,72.5 300.5,66.5 303.5,60.5C 314.151,59.6676 324.818,59.1676 335.5,59C 345.506,54.6635 355.173,49.8302 364.5,44.5 Z M 301.5,128.5 C 316.182,128.167 330.848,128.501 345.5,129.5C 349.667,135.833 353.833,142.167 358,148.5C 359.543,150.378 361.376,151.878 363.5,153C 381.479,156.274 399.479,159.441 417.5,162.5C 433.698,157.267 449.865,151.934 466,146.5C 476.356,164.232 483.689,183.232 488,203.5C 501.492,267.89 490.825,327.89 456,383.5C 452,379.5 448,375.5 444,371.5C 443.94,359.097 443.273,346.763 442,334.5C 431.333,313.167 420.667,291.833 410,270.5C 409.667,258.833 409.333,247.167 409,235.5C 408.5,234.5 408,233.5 407.5,232.5C 397.97,225.804 388.303,219.304 378.5,213C 365.934,214.055 353.601,216.555 341.5,220.5C 323.941,212.935 306.608,205.102 289.5,197C 286.58,180.564 284.413,164.064 283,147.5C 289.369,141.298 295.536,134.965 301.5,128.5 Z M 115.5,228.5 C 120.147,235.785 124.313,243.452 128,251.5C 129.167,252.667 130.333,253.833 131.5,255C 151.167,255.333 170.833,255.667 190.5,256C 198.635,269.632 206.968,283.132 215.5,296.5C 216.308,296.808 216.975,297.308 217.5,298C 226.518,298.168 235.518,298.668 244.5,299.5C 242.398,309.175 240.231,318.842 238,328.5C 227,339.5 216,350.5 205,361.5C 203.79,370.106 203.123,378.773 203,387.5C 192.152,395.592 181.485,403.925 171,412.5C 169.896,424.111 169.063,435.778 168.5,447.5C 165.091,446.652 162.091,445.152 159.5,443C 155.138,431.777 150.638,420.61 146,409.5C 145.977,379.439 145.31,349.439 144,319.5C 142.891,317.185 141.057,315.685 138.5,315C 125.38,312.61 112.38,309.776 99.5,306.5C 95,297.5 90.5,288.5 86,279.5C 85.3333,272.5 85.3333,265.5 86,258.5C 96.0355,248.632 105.869,238.632 115.5,228.5 Z"/></g>
</svg>
